<svg version="1.1" xmlns="http://www.w3.org/2000/svg" xmlns:xlink="http://www.w3.org/1999/xlink" width="990" height="685"><defs/><g><g transform="translate(-53,-6) scale(1,1)"><rect fill="#C0C0C0" stroke="none" x="327" y="271" width="41.60000000000002" height="15" opacity="0.2"/></g><g transform="translate(-53,-6) scale(1,1)"><rect fill="#C0C0C0" stroke="none" x="327" y="285" width="104" height="50" opacity="0.2"/></g><g transform="translate(-53,-6) scale(1,1)"><rect fill="#fee3da" stroke="none" x="320" y="279" width="104" height="49"/></g><g transform="translate(-53,-6) scale(1,1)"><path fill="none" stroke="#000000" d="M 320 279 L 424 279 L 424 328 L 320 328 L 320 279 Z Z" stroke-miterlimit="10"/></g><g transform="translate(-53,-6) scale(1,1)"><rect fill="#fee3da" stroke="none" x="320" y="264" width="41.60000000000002" height="15"/></g><g transform="translate(-53,-6) scale(1,1)"><path fill="none" stroke="#000000" d="M 320 264 L 361.6 264 L 361.6 279 L 320 279 L 320 264 Z Z" stroke-miterlimit="10"/></g><g transform="translate(-53,-6) scale(1,1)"><rect fill="#fee3da" stroke="none" x="320" y="278" width="104" height="50"/></g><g transform="translate(-53,-6) scale(1,1)"><path fill="none" stroke="#000000" d="M 320 278 L 424 278 L 424 328 L 320 328 L 320 278 Z Z" stroke-miterlimit="10"/></g><g transform="translate(-53,-6) scale(1,1)"><g><path fill="none" stroke="none"/><text fill="#000000" stroke="none" font-family="Arial" font-size="13px" font-style="normal" font-weight="bold" text-decoration="none" x="359.35546875" y="298.5">core</text></g></g><g transform="translate(-53,-6) scale(1,1)"><rect fill="#C0C0C0" stroke="none" x="519" y="271" width="41.60000000000002" height="15" opacity="0.2"/></g><g transform="translate(-53,-6) scale(1,1)"><rect fill="#C0C0C0" stroke="none" x="519" y="285" width="104" height="50" opacity="0.2"/></g><g transform="translate(-53,-6) scale(1,1)"><rect fill="#fee3da" stroke="none" x="512" y="279" width="104" height="49"/></g><g transform="translate(-53,-6) scale(1,1)"><path fill="none" stroke="#000000" d="M 512 279 L 616 279 L 616 328 L 512 328 L 512 279 Z Z" stroke-miterlimit="10"/></g><g transform="translate(-53,-6) scale(1,1)"><rect fill="#fee3da" stroke="none" x="512" y="264" width="41.60000000000002" height="15"/></g><g transform="translate(-53,-6) scale(1,1)"><path fill="none" stroke="#000000" d="M 512 264 L 553.6 264 L 553.6 279 L 512 279 L 512 264 Z Z" stroke-miterlimit="10"/></g><g transform="translate(-53,-6) scale(1,1)"><rect fill="#fee3da" stroke="none" x="512" y="278" width="104" height="50"/></g><g transform="translate(-53,-6) scale(1,1)"><path fill="none" stroke="#000000" d="M 512 278 L 616 278 L 616 328 L 512 328 L 512 278 Z Z" stroke-miterlimit="10"/></g><g transform="translate(-53,-6) scale(1,1)"><g><path fill="none" stroke="none"/><text fill="#000000" stroke="none" font-family="Arial" font-size="13px" font-style="normal" font-weight="bold" text-decoration="none" x="545.94091796875" y="298.5">server</text></g></g><g transform="translate(-53,-6) scale(1,1)"><rect fill="#C0C0C0" stroke="none" x="70" y="103" width="41.599999999999994" height="15" opacity="0.2"/></g><g transform="translate(-53,-6) scale(1,1)"><rect fill="#C0C0C0" stroke="none" x="70" y="117" width="104" height="50" opacity="0.2"/></g><g transform="translate(-53,-6) scale(1,1)"><rect fill="#fee3da" stroke="none" x="63" y="111" width="104" height="49"/></g><g transform="translate(-53,-6) scale(1,1)"><path fill="none" stroke="#000000" d="M 63 111 L 167 111 L 167 160 L 63 160 L 63 111 Z Z" stroke-miterlimit="10"/></g><g transform="translate(-53,-6) scale(1,1)"><rect fill="#fee3da" stroke="none" x="63" y="96" width="41.599999999999994" height="15"/></g><g transform="translate(-53,-6) scale(1,1)"><path fill="none" stroke="#000000" d="M 63 96 L 104.6 96 L 104.6 111 L 63 111 L 63 96 Z Z" stroke-miterlimit="10"/></g><g transform="translate(-53,-6) scale(1,1)"><rect fill="#fee3da" stroke="none" x="63" y="110" width="104" height="50"/></g><g transform="translate(-53,-6) scale(1,1)"><path fill="none" stroke="#000000" d="M 63 110 L 167 110 L 167 160 L 63 160 L 63 110 Z Z" stroke-miterlimit="10"/></g><g transform="translate(-53,-6) scale(1,1)"><g><path fill="none" stroke="none"/><text fill="#000000" stroke="none" font-family="Arial" font-size="13px" font-style="normal" font-weight="bold" text-decoration="none" x="95.4873046875" y="130.5">builder</text></g></g><g transform="translate(-53,-6) scale(1,1)"><rect fill="#C0C0C0" stroke="none" x="70" y="183" width="41.599999999999994" height="15" opacity="0.2"/></g><g transform="translate(-53,-6) scale(1,1)"><rect fill="#C0C0C0" stroke="none" x="70" y="197" width="104" height="50" opacity="0.2"/></g><g transform="translate(-53,-6) scale(1,1)"><rect fill="#fee3da" stroke="none" x="63" y="191" width="104" height="49"/></g><g transform="translate(-53,-6) scale(1,1)"><path fill="none" stroke="#000000" d="M 63 191 L 167 191 L 167 240 L 63 240 L 63 191 Z Z" stroke-miterlimit="10"/></g><g transform="translate(-53,-6) scale(1,1)"><rect fill="#fee3da" stroke="none" x="63" y="176" width="41.599999999999994" height="15"/></g><g transform="translate(-53,-6) scale(1,1)"><path fill="none" stroke="#000000" d="M 63 176 L 104.6 176 L 104.6 191 L 63 191 L 63 176 Z Z" stroke-miterlimit="10"/></g><g transform="translate(-53,-6) scale(1,1)"><rect fill="#fee3da" stroke="none" x="63" y="190" width="104" height="50"/></g><g transform="translate(-53,-6) scale(1,1)"><path fill="none" stroke="#000000" d="M 63 190 L 167 190 L 167 240 L 63 240 L 63 190 Z Z" stroke-miterlimit="10"/></g><g transform="translate(-53,-6) scale(1,1)"><g><path fill="none" stroke="none"/><text fill="#000000" stroke="none" font-family="Arial" font-size="13px" font-style="normal" font-weight="bold" text-decoration="none" x="94.043212890625" y="210.5">context</text></g></g><g transform="translate(-53,-6) scale(1,1)"><rect fill="#C0C0C0" stroke="none" x="70" y="263" width="41.599999999999994" height="15" opacity="0.2"/></g><g transform="translate(-53,-6) scale(1,1)"><rect fill="#C0C0C0" stroke="none" x="70" y="277" width="104" height="50" opacity="0.2"/></g><g transform="translate(-53,-6) scale(1,1)"><rect fill="#fee3da" stroke="none" x="63" y="271" width="104" height="49"/></g><g transform="translate(-53,-6) scale(1,1)"><path fill="none" stroke="#000000" d="M 63 271 L 167 271 L 167 320 L 63 320 L 63 271 Z Z" stroke-miterlimit="10"/></g><g transform="translate(-53,-6) scale(1,1)"><rect fill="#fee3da" stroke="none" x="63" y="256" width="41.599999999999994" height="15"/></g><g transform="translate(-53,-6) scale(1,1)"><path fill="none" stroke="#000000" d="M 63 256 L 104.6 256 L 104.6 271 L 63 271 L 63 256 Z Z" stroke-miterlimit="10"/></g><g transform="translate(-53,-6) scale(1,1)"><rect fill="#fee3da" stroke="none" x="63" y="270" width="104" height="50"/></g><g transform="translate(-53,-6) scale(1,1)"><path fill="none" stroke="#000000" d="M 63 270 L 167 270 L 167 320 L 63 320 L 63 270 Z Z" stroke-miterlimit="10"/></g><g transform="translate(-53,-6) scale(1,1)"><g><path fill="none" stroke="none"/><text fill="#000000" stroke="none" font-family="Arial" font-size="13px" font-style="normal" font-weight="bold" text-decoration="none" x="104.155029296875" y="290.5">dao</text></g></g><g transform="translate(-53,-6) scale(1,1)"><rect fill="#C0C0C0" stroke="none" x="70" y="343" width="41.599999999999994" height="15" opacity="0.2"/></g><g transform="translate(-53,-6) scale(1,1)"><rect fill="#C0C0C0" stroke="none" x="70" y="357" width="104" height="50" opacity="0.2"/></g><g transform="translate(-53,-6) scale(1,1)"><rect fill="#fee3da" stroke="none" x="63" y="351" width="104" height="49"/></g><g transform="translate(-53,-6) scale(1,1)"><path fill="none" stroke="#000000" d="M 63 351 L 167 351 L 167 400 L 63 400 L 63 351 Z Z" stroke-miterlimit="10"/></g><g transform="translate(-53,-6) scale(1,1)"><rect fill="#fee3da" stroke="none" x="63" y="336" width="41.599999999999994" height="15"/></g><g transform="translate(-53,-6) scale(1,1)"><path fill="none" stroke="#000000" d="M 63 336 L 104.6 336 L 104.6 351 L 63 351 L 63 336 Z Z" stroke-miterlimit="10"/></g><g transform="translate(-53,-6) scale(1,1)"><rect fill="#fee3da" stroke="none" x="63" y="350" width="104" height="50"/></g><g transform="translate(-53,-6) scale(1,1)"><path fill="none" stroke="#000000" d="M 63 350 L 167 350 L 167 400 L 63 400 L 63 350 Z Z" stroke-miterlimit="10"/></g><g transform="translate(-53,-6) scale(1,1)"><g><path fill="none" stroke="none"/><text fill="#000000" stroke="none" font-family="Arial" font-size="13px" font-style="normal" font-weight="bold" text-decoration="none" x="102.720458984375" y="370.5">filter</text></g></g><g transform="translate(-53,-6) scale(1,1)"><rect fill="#C0C0C0" stroke="none" x="70" y="423" width="41.599999999999994" height="15" opacity="0.2"/></g><g transform="translate(-53,-6) scale(1,1)"><rect fill="#C0C0C0" stroke="none" x="70" y="437" width="104" height="50" opacity="0.2"/></g><g transform="translate(-53,-6) scale(1,1)"><rect fill="#fee3da" stroke="none" x="63" y="431" width="104" height="49"/></g><g transform="translate(-53,-6) scale(1,1)"><path fill="none" stroke="#000000" d="M 63 431 L 167 431 L 167 480 L 63 480 L 63 431 Z Z" stroke-miterlimit="10"/></g><g transform="translate(-53,-6) scale(1,1)"><rect fill="#fee3da" stroke="none" x="63" y="416" width="41.599999999999994" height="15"/></g><g transform="translate(-53,-6) scale(1,1)"><path fill="none" stroke="#000000" d="M 63 416 L 104.6 416 L 104.6 431 L 63 431 L 63 416 Z Z" stroke-miterlimit="10"/></g><g transform="translate(-53,-6) scale(1,1)"><rect fill="#fee3da" stroke="none" x="63" y="430" width="104" height="50"/></g><g transform="translate(-53,-6) scale(1,1)"><path fill="none" stroke="#000000" d="M 63 430 L 167 430 L 167 480 L 63 480 L 63 430 Z Z" stroke-miterlimit="10"/></g><g transform="translate(-53,-6) scale(1,1)"><g><path fill="none" stroke="none"/><text fill="#000000" stroke="none" font-family="Arial" font-size="13px" font-style="normal" font-weight="bold" text-decoration="none" x="106.69091796875" y="450.5">util</text></g></g><g transform="translate(-53,-6) scale(1,1)"><path fill="none" stroke="#000000" d="M 322 263 L 165 161" stroke-miterlimit="10"/></g><g transform="translate(-53,-6) scale(1,1)"><path fill="#FFFFFF" stroke="none" d="M 163.8699593806676 164.81360418361845 C 163.8699593806676 160.94761058361846 167.0039657806676 157.81360418361845 170.8699593806676 157.81360418361845 C 174.7359529806676 157.81360418361845 177.8699593806676 160.94761058361846 177.8699593806676 164.81360418361845 C 177.8699593806676 168.67959778361845 174.7359529806676 171.81360418361845 170.8699593806676 171.81360418361845 C 167.0039657806676 171.81360418361845 163.8699593806676 168.67959778361845 163.8699593806676 164.81360418361845 Z"/></g><g transform="translate(-53,-6) scale(1,1)"><path fill="none" stroke="#000000" d="M 163.8699593806676 164.81360418361845 C 163.8699593806676 160.94761058361846 167.0039657806676 157.81360418361845 170.8699593806676 157.81360418361845 C 174.7359529806676 157.81360418361845 177.8699593806676 160.94761058361846 177.8699593806676 164.81360418361845 C 177.8699593806676 168.67959778361845 174.7359529806676 171.81360418361845 170.8699593806676 171.81360418361845 C 167.0039657806676 171.81360418361845 163.8699593806676 168.67959778361845 163.8699593806676 164.81360418361845 Z" stroke-miterlimit="10"/></g><g transform="translate(-53,-6) scale(1,1)"><path fill="none" stroke="#000000" d="M 176.73991876133525 168.6272083672369 L 165 161" stroke-miterlimit="10"/></g><g transform="translate(-53,-6) scale(1,1)"><path fill="none" stroke="#000000" d="M 174.68356356428606 158.94364480295084 L 167.05635519704916 170.6835635642861" stroke-miterlimit="10"/></g><g transform="translate(-53,-6) scale(1,1)"><path fill="none" stroke="#000000" d="M 319 278 L 168 226" stroke-miterlimit="10"/></g><g transform="translate(-53,-6) scale(1,1)"><path fill="#FFFFFF" stroke="none" d="M 167.61854191191657 228.27923297628914 C 167.61854191191657 224.41323937628914 170.75254831191657 221.27923297628914 174.61854191191657 221.27923297628914 C 178.48453551191656 221.27923297628914 181.61854191191657 224.41323937628914 181.61854191191657 228.27923297628914 C 181.61854191191657 232.14522657628913 178.48453551191656 235.27923297628914 174.61854191191657 235.27923297628914 C 170.75254831191657 235.27923297628914 167.61854191191657 232.14522657628913 167.61854191191657 228.27923297628914 Z"/></g><g transform="translate(-53,-6) scale(1,1)"><path fill="none" stroke="#000000" d="M 167.61854191191657 228.27923297628914 C 167.61854191191657 224.41323937628914 170.75254831191657 221.27923297628914 174.61854191191657 221.27923297628914 C 178.48453551191656 221.27923297628914 181.61854191191657 224.41323937628914 181.61854191191657 228.27923297628914 C 181.61854191191657 232.14522657628913 178.48453551191656 235.27923297628914 174.61854191191657 235.27923297628914 C 170.75254831191657 235.27923297628914 167.61854191191657 232.14522657628913 167.61854191191657 228.27923297628914 Z" stroke-miterlimit="10"/></g><g transform="translate(-53,-6) scale(1,1)"><path fill="none" stroke="#000000" d="M 181.23708382383313 230.5584659525783 L 168 226" stroke-miterlimit="10"/></g><g transform="translate(-53,-6) scale(1,1)"><path fill="none" stroke="#000000" d="M 176.8977748882057 221.66069106437257 L 172.33930893562743 234.8977748882057" stroke-miterlimit="10"/></g><g transform="translate(-53,-6) scale(1,1)"><path fill="none" stroke="#000000" d="M 319 294 L 168 290" stroke-miterlimit="10"/></g><g transform="translate(-53,-6) scale(1,1)"><path fill="#FFFFFF" stroke="none" d="M 167.9975452592065 290.18536543732995 C 167.9975452592065 286.3193718373299 171.1315516592065 283.18536543732995 174.9975452592065 283.18536543732995 C 178.8635388592065 283.18536543732995 181.9975452592065 286.3193718373299 181.9975452592065 290.18536543732995 C 181.9975452592065 294.05135903733 178.8635388592065 297.18536543732995 174.9975452592065 297.18536543732995 C 171.1315516592065 297.18536543732995 167.9975452592065 294.05135903733 167.9975452592065 290.18536543732995 Z"/></g><g transform="translate(-53,-6) scale(1,1)"><path fill="none" stroke="#000000" d="M 167.9975452592065 290.18536543732995 C 167.9975452592065 286.3193718373299 171.1315516592065 283.18536543732995 174.9975452592065 283.18536543732995 C 178.8635388592065 283.18536543732995 181.9975452592065 286.3193718373299 181.9975452592065 290.18536543732995 C 181.9975452592065 294.05135903733 178.8635388592065 297.18536543732995 174.9975452592065 297.18536543732995 C 171.1315516592065 297.18536543732995 167.9975452592065 294.05135903733 167.9975452592065 290.18536543732995 Z" stroke-miterlimit="10"/></g><g transform="translate(-53,-6) scale(1,1)"><path fill="none" stroke="#000000" d="M 181.995090518413 290.37073087465996 L 168 290" stroke-miterlimit="10"/></g><g transform="translate(-53,-6) scale(1,1)"><path fill="none" stroke="#000000" d="M 175.18291069653648 283.18782017812345 L 174.81217982187653 297.18291069653645" stroke-miterlimit="10"/></g><g transform="translate(-53,-6) scale(1,1)"><path fill="none" stroke="#000000" d="M 319 311 L 168 353" stroke-miterlimit="10"/></g><g transform="translate(-53,-6) scale(1,1)"><path fill="#FFFFFF" stroke="none" d="M 167.74398511512703 351.1241895706269 C 167.74398511512703 347.2581959706269 170.87799151512704 344.1241895706269 174.74398511512703 344.1241895706269 C 178.60997871512703 344.1241895706269 181.74398511512703 347.2581959706269 181.74398511512703 351.1241895706269 C 181.74398511512703 354.99018317062695 178.60997871512703 358.1241895706269 174.74398511512703 358.1241895706269 C 170.87799151512704 358.1241895706269 167.74398511512703 354.99018317062695 167.74398511512703 351.1241895706269 Z"/></g><g transform="translate(-53,-6) scale(1,1)"><path fill="none" stroke="#000000" d="M 167.74398511512703 351.1241895706269 C 167.74398511512703 347.2581959706269 170.87799151512704 344.1241895706269 174.74398511512703 344.1241895706269 C 178.60997871512703 344.1241895706269 181.74398511512703 347.2581959706269 181.74398511512703 351.1241895706269 C 181.74398511512703 354.99018317062695 178.60997871512703 358.1241895706269 174.74398511512703 358.1241895706269 C 170.87799151512704 358.1241895706269 167.74398511512703 354.99018317062695 167.74398511512703 351.1241895706269 Z" stroke-miterlimit="10"/></g><g transform="translate(-53,-6) scale(1,1)"><path fill="none" stroke="#000000" d="M 181.4879702302541 349.24837914125385 L 168 353" stroke-miterlimit="10"/></g><g transform="translate(-53,-6) scale(1,1)"><path fill="none" stroke="#000000" d="M 172.86817468575396 344.3802044554999 L 176.6197955445001 357.86817468575396" stroke-miterlimit="10"/></g><g transform="translate(-53,-6) scale(1,1)"><path fill="none" stroke="#000000" d="M 319 327 L 168 417" stroke-miterlimit="10"/></g><g transform="translate(-53,-6) scale(1,1)"><path fill="#FFFFFF" stroke="none" d="M 167.0129656141682 413.41611321009844 C 167.0129656141682 409.5501196100984 170.1469720141682 406.41611321009844 174.0129656141682 406.41611321009844 C 177.8789592141682 406.41611321009844 181.0129656141682 409.5501196100984 181.0129656141682 413.41611321009844 C 181.0129656141682 417.28210681009847 177.8789592141682 420.41611321009844 174.0129656141682 420.41611321009844 C 170.1469720141682 420.41611321009844 167.0129656141682 417.28210681009847 167.0129656141682 413.41611321009844 Z"/></g><g transform="translate(-53,-6) scale(1,1)"><path fill="none" stroke="#000000" d="M 167.0129656141682 413.41611321009844 C 167.0129656141682 409.5501196100984 170.1469720141682 406.41611321009844 174.0129656141682 406.41611321009844 C 177.8789592141682 406.41611321009844 181.0129656141682 409.5501196100984 181.0129656141682 413.41611321009844 C 181.0129656141682 417.28210681009847 177.8789592141682 420.41611321009844 174.0129656141682 420.41611321009844 C 170.1469720141682 420.41611321009844 167.0129656141682 417.28210681009847 167.0129656141682 413.41611321009844 Z" stroke-miterlimit="10"/></g><g transform="translate(-53,-6) scale(1,1)"><path fill="none" stroke="#000000" d="M 180.0259312283364 409.83222642019683 L 168 417" stroke-miterlimit="10"/></g><g transform="translate(-53,-6) scale(1,1)"><path fill="none" stroke="#000000" d="M 170.4290788242666 407.40314759593025 L 177.59685240406978 419.42907882426664" stroke-miterlimit="10"/></g><g transform="translate(-53,-6) scale(1,1)"><path fill="none" stroke="#000000" d="M 511 296 L 425 296" stroke-miterlimit="10" stroke-dasharray="3"/></g><g transform="translate(-53,-6) scale(1,1)"><path fill="none" stroke="#000000" d="M 435.16267485762415 291.790482243984 L 425 296 L 435.16267485762415 300.209517756016" stroke-miterlimit="10"/></g><g transform="translate(-53,-6) scale(1,1)"><rect fill="#C0C0C0" stroke="none" x="535" y="58" width="33.07089843749998" height="15" opacity="0.2"/></g><g transform="translate(-53,-6) scale(1,1)"><rect fill="#C0C0C0" stroke="none" x="535" y="72" width="82.67724609375" height="40" opacity="0.2"/></g><g transform="translate(-53,-6) scale(1,1)"><rect fill="#fee3da" stroke="none" x="528" y="66" width="82.67724609375" height="39"/></g><g transform="translate(-53,-6) scale(1,1)"><path fill="none" stroke="#000000" d="M 528 66 L 610.67724609375 66 L 610.67724609375 105 L 528 105 L 528 66 Z Z" stroke-miterlimit="10"/></g><g transform="translate(-53,-6) scale(1,1)"><rect fill="#fee3da" stroke="none" x="528" y="51" width="33.07089843749998" height="15"/></g><g transform="translate(-53,-6) scale(1,1)"><path fill="none" stroke="#000000" d="M 528 51 L 561.0708984375 51 L 561.0708984375 66 L 528 66 L 528 51 Z Z" stroke-miterlimit="10"/></g><g transform="translate(-53,-6) scale(1,1)"><rect fill="#fee3da" stroke="none" x="528" y="65" width="82.67724609375" height="40"/></g><g transform="translate(-53,-6) scale(1,1)"><path fill="none" stroke="#000000" d="M 528 65 L 610.67724609375 65 L 610.67724609375 105 L 528 105 L 528 65 Z Z" stroke-miterlimit="10"/></g><g transform="translate(-53,-6) scale(1,1)"><g><path fill="none" stroke="none"/><text fill="#000000" stroke="none" font-family="Arial" font-size="13px" font-style="normal" font-weight="bold" text-decoration="none" x="551.99365234375" y="85.5">cache</text></g></g><g transform="translate(-53,-6) scale(1,1)"><rect fill="#C0C0C0" stroke="none" x="351" y="519" width="33.07089843749998" height="15" opacity="0.2"/></g><g transform="translate(-53,-6) scale(1,1)"><rect fill="#C0C0C0" stroke="none" x="351" y="533" width="82.67724609375" height="40" opacity="0.2"/></g><g transform="translate(-53,-6) scale(1,1)"><rect fill="#fee3da" stroke="none" x="344" y="527" width="82.67724609375" height="39"/></g><g transform="translate(-53,-6) scale(1,1)"><path fill="none" stroke="#000000" d="M 344 527 L 426.67724609375 527 L 426.67724609375 566 L 344 566 L 344 527 Z Z" stroke-miterlimit="10"/></g><g transform="translate(-53,-6) scale(1,1)"><rect fill="#fee3da" stroke="none" x="344" y="512" width="33.07089843749998" height="15"/></g><g transform="translate(-53,-6) scale(1,1)"><path fill="none" stroke="#000000" d="M 344 512 L 377.0708984375 512 L 377.0708984375 527 L 344 527 L 344 512 Z Z" stroke-miterlimit="10"/></g><g transform="translate(-53,-6) scale(1,1)"><rect fill="#fee3da" stroke="none" x="344" y="526" width="82.67724609375" height="40"/></g><g transform="translate(-53,-6) scale(1,1)"><path fill="none" stroke="#000000" d="M 344 526 L 426.67724609375 526 L 426.67724609375 566 L 344 566 L 344 526 Z Z" stroke-miterlimit="10"/></g><g transform="translate(-53,-6) scale(1,1)"><g><path fill="none" stroke="none"/><text fill="#000000" stroke="none" font-family="Arial" font-size="13px" font-style="normal" font-weight="bold" text-decoration="none" x="367.99365234375" y="546.5">config</text></g></g><g transform="translate(-53,-6) scale(1,1)"><rect fill="#C0C0C0" stroke="none" x="823" y="58" width="33.07089843749998" height="15" opacity="0.2"/></g><g transform="translate(-53,-6) scale(1,1)"><rect fill="#C0C0C0" stroke="none" x="823" y="72" width="82.67724609375" height="40" opacity="0.2"/></g><g transform="translate(-53,-6) scale(1,1)"><rect fill="#fee3da" stroke="none" x="816" y="66" width="82.67724609375" height="39"/></g><g transform="translate(-53,-6) scale(1,1)"><path fill="none" stroke="#000000" d="M 816 66 L 898.67724609375 66 L 898.67724609375 105 L 816 105 L 816 66 Z Z" stroke-miterlimit="10"/></g><g transform="translate(-53,-6) scale(1,1)"><rect fill="#fee3da" stroke="none" x="816" y="51" width="33.07089843749998" height="15"/></g><g transform="translate(-53,-6) scale(1,1)"><path fill="none" stroke="#000000" d="M 816 51 L 849.0708984375 51 L 849.0708984375 66 L 816 66 L 816 51 Z Z" stroke-miterlimit="10"/></g><g transform="translate(-53,-6) scale(1,1)"><rect fill="#fee3da" stroke="none" x="816" y="65" width="82.67724609375" height="40"/></g><g transform="translate(-53,-6) scale(1,1)"><path fill="none" stroke="#000000" d="M 816 65 L 898.67724609375 65 L 898.67724609375 105 L 816 105 L 816 65 Z Z" stroke-miterlimit="10"/></g><g transform="translate(-53,-6) scale(1,1)"><g><path fill="none" stroke="none"/><text fill="#000000" stroke="none" font-family="Arial" font-size="13px" font-style="normal" font-weight="bold" text-decoration="none" x="830.60546875" y="85.5">controller</text></g></g><g transform="translate(-53,-6) scale(1,1)"><rect fill="#C0C0C0" stroke="none" x="823" y="291" width="33.07089843749998" height="15" opacity="0.2"/></g><g transform="translate(-53,-6) scale(1,1)"><rect fill="#C0C0C0" stroke="none" x="823" y="305" width="82.67724609375" height="40" opacity="0.2"/></g><g transform="translate(-53,-6) scale(1,1)"><rect fill="#fee3da" stroke="none" x="816" y="299" width="82.67724609375" height="39"/></g><g transform="translate(-53,-6) scale(1,1)"><path fill="none" stroke="#000000" d="M 816 299 L 898.67724609375 299 L 898.67724609375 338 L 816 338 L 816 299 Z Z" stroke-miterlimit="10"/></g><g transform="translate(-53,-6) scale(1,1)"><rect fill="#fee3da" stroke="none" x="816" y="284" width="33.07089843749998" height="15"/></g><g transform="translate(-53,-6) scale(1,1)"><path fill="none" stroke="#000000" d="M 816 284 L 849.0708984375 284 L 849.0708984375 299 L 816 299 L 816 284 Z Z" stroke-miterlimit="10"/></g><g transform="translate(-53,-6) scale(1,1)"><rect fill="#fee3da" stroke="none" x="816" y="298" width="82.67724609375" height="40"/></g><g transform="translate(-53,-6) scale(1,1)"><path fill="none" stroke="#000000" d="M 816 298 L 898.67724609375 298 L 898.67724609375 338 L 816 338 L 816 298 Z Z" stroke-miterlimit="10"/></g><g transform="translate(-53,-6) scale(1,1)"><g><path fill="none" stroke="none"/><text fill="#000000" stroke="none" font-family="Arial" font-size="13px" font-style="normal" font-weight="bold" text-decoration="none" x="836.02001953125" y="318.5">domain</text></g></g><g transform="translate(-53,-6) scale(1,1)"><rect fill="#C0C0C0" stroke="none" x="703" y="518" width="33.07089843749998" height="15" opacity="0.2"/></g><g transform="translate(-53,-6) scale(1,1)"><rect fill="#C0C0C0" stroke="none" x="703" y="532" width="82.67724609375" height="40" opacity="0.2"/></g><g transform="translate(-53,-6) scale(1,1)"><rect fill="#fee3da" stroke="none" x="696" y="526" width="82.67724609375" height="39"/></g><g transform="translate(-53,-6) scale(1,1)"><path fill="none" stroke="#000000" d="M 696 526 L 778.67724609375 526 L 778.67724609375 565 L 696 565 L 696 526 Z Z" stroke-miterlimit="10"/></g><g transform="translate(-53,-6) scale(1,1)"><rect fill="#fee3da" stroke="none" x="696" y="511" width="33.07089843749998" height="15"/></g><g transform="translate(-53,-6) scale(1,1)"><path fill="none" stroke="#000000" d="M 696 511 L 729.0708984375 511 L 729.0708984375 526 L 696 526 L 696 511 Z Z" stroke-miterlimit="10"/></g><g transform="translate(-53,-6) scale(1,1)"><rect fill="#fee3da" stroke="none" x="696" y="525" width="82.67724609375" height="40"/></g><g transform="translate(-53,-6) scale(1,1)"><path fill="none" stroke="#000000" d="M 696 525 L 778.67724609375 525 L 778.67724609375 565 L 696 565 L 696 525 Z Z" stroke-miterlimit="10"/></g><g transform="translate(-53,-6) scale(1,1)"><g><path fill="none" stroke="none"/><text fill="#000000" stroke="none" font-family="Arial" font-size="13px" font-style="normal" font-weight="bold" text-decoration="none" x="725.05908203125" y="545.5">filter</text></g></g><g transform="translate(-53,-6) scale(1,1)"><rect fill="#C0C0C0" stroke="none" x="823" y="405" width="33.07089843749998" height="15" opacity="0.2"/></g><g transform="translate(-53,-6) scale(1,1)"><rect fill="#C0C0C0" stroke="none" x="823" y="419" width="82.67724609375" height="40" opacity="0.2"/></g><g transform="translate(-53,-6) scale(1,1)"><rect fill="#fee3da" stroke="none" x="816" y="413" width="82.67724609375" height="39"/></g><g transform="translate(-53,-6) scale(1,1)"><path fill="none" stroke="#000000" d="M 816 413 L 898.67724609375 413 L 898.67724609375 452 L 816 452 L 816 413 Z Z" stroke-miterlimit="10"/></g><g transform="translate(-53,-6) scale(1,1)"><rect fill="#fee3da" stroke="none" x="816" y="398" width="33.07089843749998" height="15"/></g><g transform="translate(-53,-6) scale(1,1)"><path fill="none" stroke="#000000" d="M 816 398 L 849.0708984375 398 L 849.0708984375 413 L 816 413 L 816 398 Z Z" stroke-miterlimit="10"/></g><g transform="translate(-53,-6) scale(1,1)"><rect fill="#fee3da" stroke="none" x="816" y="412" width="82.67724609375" height="40"/></g><g transform="translate(-53,-6) scale(1,1)"><path fill="none" stroke="#000000" d="M 816 412 L 898.67724609375 412 L 898.67724609375 452 L 816 452 L 816 412 Z Z" stroke-miterlimit="10"/></g><g transform="translate(-53,-6) scale(1,1)"><g><path fill="none" stroke="none"/><text fill="#000000" stroke="none" font-family="Arial" font-size="13px" font-style="normal" font-weight="bold" text-decoration="none" x="835.655029296875" y="432.5">handler</text></g></g><g transform="translate(-53,-6) scale(1,1)"><rect fill="#C0C0C0" stroke="none" x="583" y="518" width="33.07089843749998" height="15" opacity="0.2"/></g><g transform="translate(-53,-6) scale(1,1)"><rect fill="#C0C0C0" stroke="none" x="583" y="532" width="82.67724609375" height="40" opacity="0.2"/></g><g transform="translate(-53,-6) scale(1,1)"><rect fill="#fee3da" stroke="none" x="576" y="526" width="82.67724609375" height="39"/></g><g transform="translate(-53,-6) scale(1,1)"><path fill="none" stroke="#000000" d="M 576 526 L 658.67724609375 526 L 658.67724609375 565 L 576 565 L 576 526 Z Z" stroke-miterlimit="10"/></g><g transform="translate(-53,-6) scale(1,1)"><rect fill="#fee3da" stroke="none" x="576" y="511" width="33.07089843749998" height="15"/></g><g transform="translate(-53,-6) scale(1,1)"><path fill="none" stroke="#000000" d="M 576 511 L 609.0708984375 511 L 609.0708984375 526 L 576 526 L 576 511 Z Z" stroke-miterlimit="10"/></g><g transform="translate(-53,-6) scale(1,1)"><rect fill="#fee3da" stroke="none" x="576" y="525" width="82.67724609375" height="40"/></g><g transform="translate(-53,-6) scale(1,1)"><path fill="none" stroke="#000000" d="M 576 525 L 658.67724609375 525 L 658.67724609375 565 L 576 565 L 576 525 Z Z" stroke-miterlimit="10"/></g><g transform="translate(-53,-6) scale(1,1)"><g><path fill="none" stroke="none"/><text fill="#000000" stroke="none" font-family="Arial" font-size="13px" font-style="normal" font-weight="bold" text-decoration="none" x="606.496826171875" y="545.5">http</text></g></g><g transform="translate(-53,-6) scale(1,1)"><rect fill="#C0C0C0" stroke="none" x="823" y="177" width="33.07089843749998" height="15" opacity="0.2"/></g><g transform="translate(-53,-6) scale(1,1)"><rect fill="#C0C0C0" stroke="none" x="823" y="191" width="82.67724609375" height="40" opacity="0.2"/></g><g transform="translate(-53,-6) scale(1,1)"><rect fill="#fee3da" stroke="none" x="816" y="185" width="82.67724609375" height="39"/></g><g transform="translate(-53,-6) scale(1,1)"><path fill="none" stroke="#000000" d="M 816 185 L 898.67724609375 185 L 898.67724609375 224 L 816 224 L 816 185 Z Z" stroke-miterlimit="10"/></g><g transform="translate(-53,-6) scale(1,1)"><rect fill="#fee3da" stroke="none" x="816" y="170" width="33.07089843749998" height="15"/></g><g transform="translate(-53,-6) scale(1,1)"><path fill="none" stroke="#000000" d="M 816 170 L 849.0708984375 170 L 849.0708984375 185 L 816 185 L 816 170 Z Z" stroke-miterlimit="10"/></g><g transform="translate(-53,-6) scale(1,1)"><rect fill="#fee3da" stroke="none" x="816" y="184" width="82.67724609375" height="40"/></g><g transform="translate(-53,-6) scale(1,1)"><path fill="none" stroke="#000000" d="M 816 184 L 898.67724609375 184 L 898.67724609375 224 L 816 224 L 816 184 Z Z" stroke-miterlimit="10"/></g><g transform="translate(-53,-6) scale(1,1)"><g><path fill="none" stroke="none"/><text fill="#000000" stroke="none" font-family="Arial" font-size="13px" font-style="normal" font-weight="bold" text-decoration="none" x="836.75" y="204.5">service</text></g></g><g transform="translate(-53,-6) scale(1,1)"><rect fill="#C0C0C0" stroke="none" x="823" y="518" width="33.07089843749998" height="15" opacity="0.2"/></g><g transform="translate(-53,-6) scale(1,1)"><rect fill="#C0C0C0" stroke="none" x="823" y="532" width="82.67724609375" height="40" opacity="0.2"/></g><g transform="translate(-53,-6) scale(1,1)"><rect fill="#fee3da" stroke="none" x="816" y="526" width="82.67724609375" height="39"/></g><g transform="translate(-53,-6) scale(1,1)"><path fill="none" stroke="#000000" d="M 816 526 L 898.67724609375 526 L 898.67724609375 565 L 816 565 L 816 526 Z Z" stroke-miterlimit="10"/></g><g transform="translate(-53,-6) scale(1,1)"><rect fill="#fee3da" stroke="none" x="816" y="511" width="33.07089843749998" height="15"/></g><g transform="translate(-53,-6) scale(1,1)"><path fill="none" stroke="#000000" d="M 816 511 L 849.0708984375 511 L 849.0708984375 526 L 816 526 L 816 511 Z Z" stroke-miterlimit="10"/></g><g transform="translate(-53,-6) scale(1,1)"><rect fill="#fee3da" stroke="none" x="816" y="525" width="82.67724609375" height="40"/></g><g transform="translate(-53,-6) scale(1,1)"><path fill="none" stroke="#000000" d="M 816 525 L 898.67724609375 525 L 898.67724609375 565 L 816 565 L 816 525 Z Z" stroke-miterlimit="10"/></g><g transform="translate(-53,-6) scale(1,1)"><g><path fill="none" stroke="none"/><text fill="#000000" stroke="none" font-family="Arial" font-size="13px" font-style="normal" font-weight="bold" text-decoration="none" x="838.908203125" y="545.5">thread</text></g></g><g transform="translate(-53,-6) scale(1,1)"><rect fill="#C0C0C0" stroke="none" x="463" y="518" width="33.07089843749998" height="15" opacity="0.2"/></g><g transform="translate(-53,-6) scale(1,1)"><rect fill="#C0C0C0" stroke="none" x="463" y="532" width="82.67724609375" height="40" opacity="0.2"/></g><g transform="translate(-53,-6) scale(1,1)"><rect fill="#fee3da" stroke="none" x="456" y="526" width="82.67724609375" height="39"/></g><g transform="translate(-53,-6) scale(1,1)"><path fill="none" stroke="#000000" d="M 456 526 L 538.67724609375 526 L 538.67724609375 565 L 456 565 L 456 526 Z Z" stroke-miterlimit="10"/></g><g transform="translate(-53,-6) scale(1,1)"><rect fill="#fee3da" stroke="none" x="456" y="511" width="33.07089843749998" height="15"/></g><g transform="translate(-53,-6) scale(1,1)"><path fill="none" stroke="#000000" d="M 456 511 L 489.0708984375 511 L 489.0708984375 526 L 456 526 L 456 511 Z Z" stroke-miterlimit="10"/></g><g transform="translate(-53,-6) scale(1,1)"><rect fill="#fee3da" stroke="none" x="456" y="525" width="82.67724609375" height="40"/></g><g transform="translate(-53,-6) scale(1,1)"><path fill="none" stroke="#000000" d="M 456 525 L 538.67724609375 525 L 538.67724609375 565 L 456 565 L 456 525 Z Z" stroke-miterlimit="10"/></g><g transform="translate(-53,-6) scale(1,1)"><g><path fill="none" stroke="none"/><text fill="#000000" stroke="none" font-family="Arial" font-size="13px" font-style="normal" font-weight="bold" text-decoration="none" x="489.029541015625" y="545.5">util</text></g></g><g transform="translate(-53,-6) scale(1,1)"><path fill="none" stroke="#000000" d="M 617 299 L 815 309" stroke-miterlimit="10"/></g><g transform="translate(-53,-6) scale(1,1)"><path fill="#FFFFFF" stroke="none" d="M 801.008910617426 308.64691467764777 C 801.008910617426 304.78092107764775 804.1429170174259 301.64691467764777 808.008910617426 301.64691467764777 C 811.874904217426 301.64691467764777 815.008910617426 304.78092107764775 815.008910617426 308.64691467764777 C 815.008910617426 312.5129082776478 811.874904217426 315.64691467764777 808.008910617426 315.64691467764777 C 804.1429170174259 315.64691467764777 801.008910617426 312.5129082776478 801.008910617426 308.64691467764777 Z"/></g><g transform="translate(-53,-6) scale(1,1)"><path fill="none" stroke="#000000" d="M 801.008910617426 308.64691467764777 C 801.008910617426 304.78092107764775 804.1429170174259 301.64691467764777 808.008910617426 301.64691467764777 C 811.874904217426 301.64691467764777 815.008910617426 304.78092107764775 815.008910617426 308.64691467764777 C 815.008910617426 312.5129082776478 811.874904217426 315.64691467764777 808.008910617426 315.64691467764777 C 804.1429170174259 315.64691467764777 801.008910617426 312.5129082776478 801.008910617426 308.64691467764777 Z" stroke-miterlimit="10"/></g><g transform="translate(-53,-6) scale(1,1)"><path fill="none" stroke="#000000" d="M 801.0178212348519 308.29382935529554 L 815 309" stroke-miterlimit="10"/></g><g transform="translate(-53,-6) scale(1,1)"><path fill="none" stroke="#000000" d="M 807.6558252950738 315.6380040602218 L 808.3619959397781 301.6558252950737" stroke-miterlimit="10"/></g><g transform="translate(-53,-6) scale(1,1)"><path fill="none" stroke="#000000" d="M 617 278 L 815 211" stroke-miterlimit="10"/></g><g transform="translate(-53,-6) scale(1,1)"><path fill="#FFFFFF" stroke="none" d="M 801.3693317753111 213.24371096491996 C 801.3693317753111 209.37771736491996 804.5033381753111 206.24371096491996 808.3693317753111 206.24371096491996 C 812.2353253753112 206.24371096491996 815.3693317753111 209.37771736491996 815.3693317753111 213.24371096491996 C 815.3693317753111 217.10970456491995 812.2353253753112 220.24371096491996 808.3693317753111 220.24371096491996 C 804.5033381753111 220.24371096491996 801.3693317753111 217.10970456491995 801.3693317753111 213.24371096491996 Z"/></g><g transform="translate(-53,-6) scale(1,1)"><path fill="none" stroke="#000000" d="M 801.3693317753111 213.24371096491996 C 801.3693317753111 209.37771736491996 804.5033381753111 206.24371096491996 808.3693317753111 206.24371096491996 C 812.2353253753112 206.24371096491996 815.3693317753111 209.37771736491996 815.3693317753111 213.24371096491996 C 815.3693317753111 217.10970456491995 812.2353253753112 220.24371096491996 808.3693317753111 220.24371096491996 C 804.5033381753111 220.24371096491996 801.3693317753111 217.10970456491995 801.3693317753111 213.24371096491996 Z" stroke-miterlimit="10"/></g><g transform="translate(-53,-6) scale(1,1)"><path fill="none" stroke="#000000" d="M 801.7386635506224 215.4874219298399 L 815 211" stroke-miterlimit="10"/></g><g transform="translate(-53,-6) scale(1,1)"><path fill="none" stroke="#000000" d="M 810.6130427402311 219.87437918960876 L 806.1256208103912 206.61304274023115" stroke-miterlimit="10"/></g><g transform="translate(-53,-6) scale(1,1)"><path fill="none" stroke="#000000" d="M 608 263 L 819 106" stroke-miterlimit="10"/></g><g transform="translate(-53,-6) scale(1,1)"><path fill="#FFFFFF" stroke="none" d="M 806.3840710138118 110.17867701815904 C 806.3840710138118 106.31268341815904 809.5180774138117 103.17867701815904 813.3840710138118 103.17867701815904 C 817.2500646138118 103.17867701815904 820.3840710138118 106.31268341815904 820.3840710138118 110.17867701815904 C 820.3840710138118 114.04467061815903 817.2500646138118 117.17867701815904 813.3840710138118 117.17867701815904 C 809.5180774138117 117.17867701815904 806.3840710138118 114.04467061815903 806.3840710138118 110.17867701815904 Z"/></g><g transform="translate(-53,-6) scale(1,1)"><path fill="none" stroke="#000000" d="M 806.3840710138118 110.17867701815904 C 806.3840710138118 106.31268341815904 809.5180774138117 103.17867701815904 813.3840710138118 103.17867701815904 C 817.2500646138118 103.17867701815904 820.3840710138118 106.31268341815904 820.3840710138118 110.17867701815904 C 820.3840710138118 114.04467061815903 817.2500646138118 117.17867701815904 813.3840710138118 117.17867701815904 C 809.5180774138117 117.17867701815904 806.3840710138118 114.04467061815903 806.3840710138118 110.17867701815904 Z" stroke-miterlimit="10"/></g><g transform="translate(-53,-6) scale(1,1)"><path fill="none" stroke="#000000" d="M 807.7681420276235 114.35735403631807 L 819 106" stroke-miterlimit="10"/></g><g transform="translate(-53,-6) scale(1,1)"><path fill="none" stroke="#000000" d="M 817.5627480319708 115.7946060043473 L 809.2053939956527 104.56274803197077" stroke-miterlimit="10"/></g><g transform="translate(-53,-6) scale(1,1)"><path fill="none" stroke="#000000" d="M 540 329 L 406 511" stroke-miterlimit="10"/></g><g transform="translate(-53,-6) scale(1,1)"><path fill="#FFFFFF" stroke="none" d="M 403.1502799671582 505.3630525819194 C 403.1502799671582 501.4970589819194 406.2842863671582 498.3630525819194 410.1502799671582 498.3630525819194 C 414.01627356715824 498.3630525819194 417.1502799671582 501.4970589819194 417.1502799671582 505.3630525819194 C 417.1502799671582 509.22904618191944 414.01627356715824 512.3630525819194 410.1502799671582 512.3630525819194 C 406.2842863671582 512.3630525819194 403.1502799671582 509.22904618191944 403.1502799671582 505.3630525819194 Z"/></g><g transform="translate(-53,-6) scale(1,1)"><path fill="none" stroke="#000000" d="M 403.1502799671582 505.3630525819194 C 403.1502799671582 501.4970589819194 406.2842863671582 498.3630525819194 410.1502799671582 498.3630525819194 C 414.01627356715824 498.3630525819194 417.1502799671582 501.4970589819194 417.1502799671582 505.3630525819194 C 417.1502799671582 509.22904618191944 414.01627356715824 512.3630525819194 410.1502799671582 512.3630525819194 C 406.2842863671582 512.3630525819194 403.1502799671582 509.22904618191944 403.1502799671582 505.3630525819194 Z" stroke-miterlimit="10"/></g><g transform="translate(-53,-6) scale(1,1)"><path fill="none" stroke="#000000" d="M 414.3005599343164 499.72610516383884 L 406 511" stroke-miterlimit="10"/></g><g transform="translate(-53,-6) scale(1,1)"><path fill="none" stroke="#000000" d="M 404.51333254907763 501.2127726147612 L 415.7872273852388 509.51333254907763" stroke-miterlimit="10"/></g><g transform="translate(-53,-6) scale(1,1)"><path fill="none" stroke="#000000" d="M 565 263 L 568 106" stroke-miterlimit="10"/></g><g transform="translate(-53,-6) scale(1,1)"><path fill="#FFFFFF" stroke="none" d="M 560.8662664508113 112.99872240754135 C 560.8662664508113 109.13272880754135 564.0002728508113 105.99872240754135 567.8662664508113 105.99872240754135 C 571.7322600508113 105.99872240754135 574.8662664508113 109.13272880754135 574.8662664508113 112.99872240754135 C 574.8662664508113 116.86471600754135 571.7322600508113 119.99872240754135 567.8662664508113 119.99872240754135 C 564.0002728508113 119.99872240754135 560.8662664508113 116.86471600754135 560.8662664508113 112.99872240754135 Z"/></g><g transform="translate(-53,-6) scale(1,1)"><path fill="none" stroke="#000000" d="M 560.8662664508113 112.99872240754135 C 560.8662664508113 109.13272880754135 564.0002728508113 105.99872240754135 567.8662664508113 105.99872240754135 C 571.7322600508113 105.99872240754135 574.8662664508113 109.13272880754135 574.8662664508113 112.99872240754135 C 574.8662664508113 116.86471600754135 571.7322600508113 119.99872240754135 567.8662664508113 119.99872240754135 C 564.0002728508113 119.99872240754135 560.8662664508113 116.86471600754135 560.8662664508113 112.99872240754135 Z" stroke-miterlimit="10"/></g><g transform="translate(-53,-6) scale(1,1)"><path fill="none" stroke="#000000" d="M 567.7325329016227 119.9974448150827 L 568 106" stroke-miterlimit="10"/></g><g transform="translate(-53,-6) scale(1,1)"><path fill="none" stroke="#000000" d="M 574.8649888583526 113.13245595673004 L 560.86754404327 112.86498885835266" stroke-miterlimit="10"/></g><g transform="translate(-53,-6) scale(1,1)"><path fill="none" stroke="#000000" d="M 617 319 L 815 407" stroke-miterlimit="10"/></g><g transform="translate(-53,-6) scale(1,1)"><path fill="#FFFFFF" stroke="none" d="M 801.6033191596582 404.15703073762586 C 801.6033191596582 400.29103713762584 804.7373255596582 397.15703073762586 808.6033191596582 397.15703073762586 C 812.4693127596582 397.15703073762586 815.6033191596582 400.29103713762584 815.6033191596582 404.15703073762586 C 815.6033191596582 408.0230243376259 812.4693127596582 411.15703073762586 808.6033191596582 411.15703073762586 C 804.7373255596582 411.15703073762586 801.6033191596582 408.0230243376259 801.6033191596582 404.15703073762586 Z"/></g><g transform="translate(-53,-6) scale(1,1)"><path fill="none" stroke="#000000" d="M 801.6033191596582 404.15703073762586 C 801.6033191596582 400.29103713762584 804.7373255596582 397.15703073762586 808.6033191596582 397.15703073762586 C 812.4693127596582 397.15703073762586 815.6033191596582 400.29103713762584 815.6033191596582 404.15703073762586 C 815.6033191596582 408.0230243376259 812.4693127596582 411.15703073762586 808.6033191596582 411.15703073762586 C 804.7373255596582 411.15703073762586 801.6033191596582 408.0230243376259 801.6033191596582 404.15703073762586 Z" stroke-miterlimit="10"/></g><g transform="translate(-53,-6) scale(1,1)"><path fill="none" stroke="#000000" d="M 802.2066383193164 401.3140614752517 L 815 407" stroke-miterlimit="10"/></g><g transform="translate(-53,-6) scale(1,1)"><path fill="none" stroke="#000000" d="M 805.7603498972841 410.55371157796765 L 811.4462884220324 397.7603498972841" stroke-miterlimit="10"/></g><g transform="translate(-53,-6) scale(1,1)"><path fill="none" stroke="#000000" d="M 604 329 L 823 510" stroke-miterlimit="10"/></g><g transform="translate(-53,-6) scale(1,1)"><path fill="#FFFFFF" stroke="none" d="M 810.6043198402414 505.54055658029085 C 810.6043198402414 501.67456298029083 813.7383262402413 498.54055658029085 817.6043198402414 498.54055658029085 C 821.4703134402414 498.54055658029085 824.6043198402414 501.67456298029083 824.6043198402414 505.54055658029085 C 824.6043198402414 509.4065501802909 821.4703134402414 512.5405565802909 817.6043198402414 512.5405565802909 C 813.7383262402413 512.5405565802909 810.6043198402414 509.4065501802909 810.6043198402414 505.54055658029085 Z"/></g><g transform="translate(-53,-6) scale(1,1)"><path fill="none" stroke="#000000" d="M 810.6043198402414 505.54055658029085 C 810.6043198402414 501.67456298029083 813.7383262402413 498.54055658029085 817.6043198402414 498.54055658029085 C 821.4703134402414 498.54055658029085 824.6043198402414 501.67456298029083 824.6043198402414 505.54055658029085 C 824.6043198402414 509.4065501802909 821.4703134402414 512.5405565802909 817.6043198402414 512.5405565802909 C 813.7383262402413 512.5405565802909 810.6043198402414 509.4065501802909 810.6043198402414 505.54055658029085 Z" stroke-miterlimit="10"/></g><g transform="translate(-53,-6) scale(1,1)"><path fill="none" stroke="#000000" d="M 812.2086396804827 501.08111316058165 L 823 510" stroke-miterlimit="10"/></g><g transform="translate(-53,-6) scale(1,1)"><path fill="none" stroke="#000000" d="M 813.1448764205322 510.9362367400495 L 822.0637632599505 500.1448764205322" stroke-miterlimit="10"/></g><g transform="translate(-53,-6) scale(1,1)"><path fill="none" stroke="#000000" d="M 588 329 L 717 510" stroke-miterlimit="10"/></g><g transform="translate(-53,-6) scale(1,1)"><path fill="#FFFFFF" stroke="none" d="M 705.937293166084 504.2996128919474 C 705.937293166084 500.43361929194737 709.071299566084 497.2996128919474 712.937293166084 497.2996128919474 C 716.803286766084 497.2996128919474 719.937293166084 500.43361929194737 719.937293166084 504.2996128919474 C 719.937293166084 508.1656064919474 716.803286766084 511.2996128919474 712.937293166084 511.2996128919474 C 709.071299566084 511.2996128919474 705.937293166084 508.1656064919474 705.937293166084 504.2996128919474 Z"/></g><g transform="translate(-53,-6) scale(1,1)"><path fill="none" stroke="#000000" d="M 705.937293166084 504.2996128919474 C 705.937293166084 500.43361929194737 709.071299566084 497.2996128919474 712.937293166084 497.2996128919474 C 716.803286766084 497.2996128919474 719.937293166084 500.43361929194737 719.937293166084 504.2996128919474 C 719.937293166084 508.1656064919474 716.803286766084 511.2996128919474 712.937293166084 511.2996128919474 C 709.071299566084 511.2996128919474 705.937293166084 508.1656064919474 705.937293166084 504.2996128919474 Z" stroke-miterlimit="10"/></g><g transform="translate(-53,-6) scale(1,1)"><path fill="none" stroke="#000000" d="M 708.8745863321681 498.5992257838948 L 717 510" stroke-miterlimit="10"/></g><g transform="translate(-53,-6) scale(1,1)"><path fill="none" stroke="#000000" d="M 707.2369060580314 508.36231972586336 L 718.6376802741366 500.2369060580314" stroke-miterlimit="10"/></g><g transform="translate(-53,-6) scale(1,1)"><path fill="none" stroke="#000000" d="M 571 329 L 611 510" stroke-miterlimit="10"/></g><g transform="translate(-53,-6) scale(1,1)"><path fill="#FFFFFF" stroke="none" d="M 602.4894846809103 503.16491818111916 C 602.4894846809103 499.29892458111914 605.6234910809103 496.16491818111916 609.4894846809103 496.16491818111916 C 613.3554782809103 496.16491818111916 616.4894846809103 499.29892458111914 616.4894846809103 503.16491818111916 C 616.4894846809103 507.0309117811192 613.3554782809103 510.16491818111916 609.4894846809103 510.16491818111916 C 605.6234910809103 510.16491818111916 602.4894846809103 507.0309117811192 602.4894846809103 503.16491818111916 Z"/></g><g transform="translate(-53,-6) scale(1,1)"><path fill="none" stroke="#000000" d="M 602.4894846809103 503.16491818111916 C 602.4894846809103 499.29892458111914 605.6234910809103 496.16491818111916 609.4894846809103 496.16491818111916 C 613.3554782809103 496.16491818111916 616.4894846809103 499.29892458111914 616.4894846809103 503.16491818111916 C 616.4894846809103 507.0309117811192 613.3554782809103 510.16491818111916 609.4894846809103 510.16491818111916 C 605.6234910809103 510.16491818111916 602.4894846809103 507.0309117811192 602.4894846809103 503.16491818111916 Z" stroke-miterlimit="10"/></g><g transform="translate(-53,-6) scale(1,1)"><path fill="none" stroke="#000000" d="M 607.9789693618206 496.3298363622383 L 611 510" stroke-miterlimit="10"/></g><g transform="translate(-53,-6) scale(1,1)"><path fill="none" stroke="#000000" d="M 602.6544028620294 504.67543350020884 L 616.3245664997912 501.6544028620295" stroke-miterlimit="10"/></g><g transform="translate(-53,-6) scale(1,1)"><path fill="none" stroke="#000000" d="M 555 329 L 505 510" stroke-miterlimit="10"/></g><g transform="translate(-53,-6) scale(1,1)"><path fill="#FFFFFF" stroke="none" d="M 499.863891947184 503.2527111511939 C 499.863891947184 499.3867175511939 502.997898347184 496.2527111511939 506.863891947184 496.2527111511939 C 510.72988554718404 496.2527111511939 513.863891947184 499.3867175511939 513.863891947184 503.2527111511939 C 513.863891947184 507.11870475119395 510.72988554718404 510.2527111511939 506.863891947184 510.2527111511939 C 502.997898347184 510.2527111511939 499.863891947184 507.11870475119395 499.863891947184 503.2527111511939 Z"/></g><g transform="translate(-53,-6) scale(1,1)"><path fill="none" stroke="#000000" d="M 499.863891947184 503.2527111511939 C 499.863891947184 499.3867175511939 502.997898347184 496.2527111511939 506.863891947184 496.2527111511939 C 510.72988554718404 496.2527111511939 513.863891947184 499.3867175511939 513.863891947184 503.2527111511939 C 513.863891947184 507.11870475119395 510.72988554718404 510.2527111511939 506.863891947184 510.2527111511939 C 502.997898347184 510.2527111511939 499.863891947184 507.11870475119395 499.863891947184 503.2527111511939 Z" stroke-miterlimit="10"/></g><g transform="translate(-53,-6) scale(1,1)"><path fill="none" stroke="#000000" d="M 508.727783894368 496.5054223023879 L 505 510" stroke-miterlimit="10"/></g><g transform="translate(-53,-6) scale(1,1)"><path fill="none" stroke="#000000" d="M 500.11660309837794 501.3888192040099 L 513.6111807959901 505.11660309837794" stroke-miterlimit="10"/></g><g transform="translate(-53,-6) scale(1,1)"><path fill="none" stroke="#000000" d="M 857 106 L 857 169" stroke-miterlimit="10" stroke-dasharray="3"/></g><g transform="translate(-53,-6) scale(1,1)"><path fill="none" stroke="#000000" d="M 852.790482243984 158.83732514237585 L 857 169 L 861.209517756016 158.83732514237585" stroke-miterlimit="10"/></g><g transform="translate(-53,-6) scale(1,1)"><path fill="none" stroke="#000000" d="M 857 225 L 857 283" stroke-miterlimit="10" stroke-dasharray="3"/></g><g transform="translate(-53,-6) scale(1,1)"><path fill="none" stroke="#000000" d="M 852.790482243984 272.83732514237585 L 857 283 L 861.209517756016 272.83732514237585" stroke-miterlimit="10"/></g><g transform="translate(-53,-6) scale(1,1)"><path fill="none" stroke="#000000" d="M 899 88 L 976 88 L 976 432 L 899 432" stroke-miterlimit="10" stroke-dasharray="3"/></g><g transform="translate(-53,-6) scale(1,1)"><path fill="none" stroke="#000000" d="M 909.1626748576241 427.790482243984 L 899 432 L 909.1626748576241 436.209517756016" stroke-miterlimit="10"/></g><g transform="translate(-53,-6) scale(1,1)"><path fill="none" stroke="#000000" d="M 737 565 L 737 616 L 617 616 L 617 565" stroke-miterlimit="10" stroke-dasharray="3"/></g><g transform="translate(-53,-6) scale(1,1)"><path fill="none" stroke="#000000" d="M 621.209517756016 575.1626748576241 L 617 565 L 612.790482243984 575.1626748576241" stroke-miterlimit="10"/></g><g transform="translate(-53,-6) scale(1,1)"><path fill="none" stroke="#000000" d="M 864 51 L 864 16 L 569 16 L 569 51" stroke-miterlimit="10" stroke-dasharray="3"/></g><g transform="translate(-53,-6) scale(1,1)"><path fill="none" stroke="#000000" d="M 564.790482243984 40.837325142375846 L 569 51 L 573.209517756016 40.837325142375846" stroke-miterlimit="10"/></g><g transform="translate(-53,-6) scale(1,1)"><path fill="none" stroke="#000000" d="M 752 565 L 752 640 L 385 640 L 385 566" stroke-miterlimit="10" stroke-dasharray="3"/></g><g transform="translate(-53,-6) scale(1,1)"><path fill="none" stroke="#000000" d="M 389.209517756016 576.1626748576241 L 385 566 L 380.790482243984 576.1626748576241" stroke-miterlimit="10"/></g><g transform="translate(-53,-6) scale(1,1)"><path fill="none" stroke="#000000" d="M 899 72 L 1032 72 L 1032 680 L 408 680 L 408 566" stroke-miterlimit="10" stroke-dasharray="3"/></g><g transform="translate(-53,-6) scale(1,1)"><path fill="none" stroke="#000000" d="M 412.209517756016 576.1626748576241 L 408 566 L 403.790482243984 576.1626748576241" stroke-miterlimit="10"/></g></g></svg>